<svg width="300" height="300" viewBox="0 0 300 300" fill="none" xmlns="http://www.w3.org/2000/svg">
<rect width="300" height="300" fill="white"/>
<path d="M72.8984 139.909V161H68.5732V139.909H72.8984ZM55.8342 161L62.4457 149.878L56.1122 139.909H61.6012L66.3384 148.591H75.2464L79.8601 139.909H85.3285L79.1495 149.847L85.6374 161H80.3132L75.854 152.71H65.6896L61.1172 161H55.8342ZM101.057 161L94.2803 152.01H92.7561V161H88.297V139.909H92.7561V148.333H93.6521L100.655 139.909H106.206L97.9774 149.692L106.587 161H101.057ZM117.817 161.288V157.663H118.96C119.53 157.663 119.99 157.595 120.34 157.457C120.69 157.313 120.968 157.104 121.174 156.829C121.387 156.548 121.566 156.198 121.71 155.779L121.967 155.089L114.305 139.909H118.919L123.883 150.29L128.033 139.909H132.585L125.314 156.86C124.964 157.643 124.549 158.371 124.068 159.043C123.594 159.716 122.987 160.259 122.245 160.67C121.504 161.082 120.556 161.288 119.403 161.288H117.817ZM133.679 165.634V157.519H134.894C135.244 157.299 135.526 156.949 135.739 156.469C135.958 155.988 136.137 155.422 136.274 154.77C136.418 154.117 136.528 153.414 136.604 152.658C136.686 151.896 136.758 151.127 136.82 150.352L137.232 145.182H149.363V157.519H151.814V165.634H147.633V161H137.963V165.634H133.679ZM139.261 157.519H145.223V148.56H140.96L140.795 150.352C140.678 152.04 140.51 153.475 140.29 154.656C140.071 155.83 139.728 156.785 139.261 157.519ZM158.881 161.299C157.872 161.299 156.973 161.124 156.183 160.773C155.394 160.416 154.769 159.891 154.309 159.198C153.856 158.498 153.629 157.626 153.629 156.582C153.629 155.703 153.791 154.965 154.113 154.368C154.436 153.771 154.875 153.29 155.432 152.926C155.988 152.562 156.619 152.288 157.326 152.102C158.04 151.917 158.789 151.786 159.571 151.711C160.491 151.615 161.233 151.526 161.796 151.443C162.359 151.354 162.767 151.223 163.021 151.052C163.275 150.88 163.402 150.626 163.402 150.29V150.228C163.402 149.576 163.196 149.071 162.785 148.714C162.379 148.357 161.803 148.179 161.054 148.179C160.265 148.179 159.637 148.354 159.17 148.704C158.703 149.047 158.394 149.48 158.243 150.001L154.185 149.672C154.391 148.711 154.796 147.88 155.401 147.18C156.005 146.473 156.784 145.93 157.738 145.553C158.7 145.168 159.812 144.976 161.075 144.976C161.954 144.976 162.795 145.079 163.598 145.285C164.408 145.491 165.126 145.81 165.75 146.243C166.382 146.675 166.88 147.231 167.244 147.911C167.608 148.584 167.79 149.39 167.79 150.331V161H163.629V158.806H163.505C163.251 159.301 162.912 159.737 162.486 160.114C162.06 160.485 161.549 160.777 160.951 160.99C160.354 161.196 159.664 161.299 158.881 161.299ZM160.138 158.271C160.783 158.271 161.353 158.144 161.847 157.89C162.342 157.629 162.73 157.279 163.011 156.839C163.293 156.4 163.433 155.902 163.433 155.346V153.668C163.296 153.757 163.107 153.839 162.867 153.915C162.633 153.983 162.369 154.049 162.074 154.11C161.779 154.165 161.484 154.217 161.188 154.265C160.893 154.306 160.625 154.344 160.385 154.378C159.87 154.454 159.42 154.574 159.036 154.739C158.651 154.903 158.353 155.127 158.14 155.408C157.927 155.683 157.821 156.026 157.821 156.438C157.821 157.035 158.037 157.492 158.47 157.808C158.909 158.116 159.465 158.271 160.138 158.271ZM184.921 145.182V161H180.76V145.182H184.921ZM182.892 152.123V155.583C182.556 155.734 182.137 155.878 181.636 156.016C181.134 156.146 180.609 156.252 180.06 156.335C179.511 156.417 178.996 156.458 178.515 156.458C176.243 156.458 174.454 155.992 173.15 155.058C171.845 154.117 171.193 152.617 171.193 150.558V145.161H175.333V150.558C175.333 151.169 175.436 151.653 175.642 152.01C175.855 152.367 176.191 152.624 176.651 152.782C177.118 152.933 177.739 153.009 178.515 153.009C179.236 153.009 179.943 152.933 180.637 152.782C181.33 152.631 182.082 152.411 182.892 152.123ZM199.336 151.34V154.79H191.077V151.34H199.336ZM192.518 145.182V161H188.327V145.182H192.518ZM202.085 145.182V161H197.925V145.182H202.085ZM208.239 150.043H212.966C215.06 150.043 216.694 150.544 217.868 151.546C219.042 152.542 219.629 153.874 219.629 155.542C219.629 156.627 219.364 157.581 218.836 158.405C218.307 159.222 217.545 159.86 216.549 160.32C215.554 160.773 214.359 161 212.966 161H205.489V145.182H209.68V157.55H212.966C213.7 157.55 214.304 157.365 214.778 156.994C215.252 156.623 215.492 156.15 215.499 155.573C215.492 154.962 215.252 154.464 214.778 154.08C214.304 153.688 213.7 153.493 212.966 153.493H208.239V150.043ZM221.328 161V145.182H225.715V161H221.328ZM233.413 155.212L239.108 145.182H243.433V161H239.252V150.939L233.578 161H229.221V145.182H233.413V155.212ZM238.356 139.662H241.415C241.408 140.911 240.944 141.917 240.024 142.679C239.111 143.441 237.875 143.822 236.317 143.822C234.752 143.822 233.512 143.441 232.599 142.679C231.686 141.917 231.23 140.911 231.23 139.662H234.268C234.261 140.136 234.412 140.561 234.721 140.939C235.037 141.317 235.569 141.505 236.317 141.505C237.045 141.505 237.566 141.32 237.882 140.949C238.198 140.578 238.356 140.149 238.356 139.662Z" fill="#000262"/>
</svg>
